<?xml version="1.0" standalone="no"?>
<!DOCTYPE svg PUBLIC "-//W3C//DTD SVG 20010904//EN"
 "http://www.w3.org/TR/2001/REC-SVG-20010904/DTD/svg10.dtd">
<svg version="1.0" xmlns="http://www.w3.org/2000/svg"
 width="1024.000000pt" height="1024.000000pt" viewBox="0 0 1024.000000 1024.000000"
 preserveAspectRatio="xMidYMid meet">
<metadata>
Created by potrace 1.14, written by Peter Selinger 2001-2017
</metadata>
<g transform="translate(0.000000,1024.000000) scale(0.100000,-0.100000)"
fill="#000000" stroke="none">
<path d="M4935 10154 c-1054 -36 -1991 -360 -2800 -968 -209 -157 -354 -284
-571 -500 -443 -443 -760 -881 -997 -1376 -264 -553 -401 -1058 -463 -1710
-19 -201 -22 -715 -5 -910 96 -1092 453 -1965 1145 -2795 130 -156 487 -513
646 -646 660 -553 1341 -888 2150 -1058 345 -73 664 -103 1080 -103 416 0 735
30 1080 103 809 170 1490 505 2150 1058 159 133 516 490 646 646 547 656 878
1328 1049 2128 75 347 108 691 107 1107 0 407 -32 730 -103 1070 -170 809
-505 1490 -1058 2150 -133 159 -490 516 -646 646 -827 690 -1734 1061 -2790
1143 -146 12 -483 20 -620 15z m346 -1299 c356 -357 373 -378 373 -485 0 -102
-28 -144 -257 -377 -172 -175 -207 -215 -212 -246 -10 -54 8 -91 87 -175 38
-40 78 -87 88 -105 26 -42 25 -103 -1 -147 -30 -50 -210 -227 -243 -240 -15
-5 -80 -10 -145 -10 -174 0 -171 1 -289 -114 -137 -133 -161 -164 -168 -220
-7 -45 -1 -59 162 -394 166 -340 169 -348 169 -412 0 -76 -26 -123 -81 -146
-47 -20 -216 -19 -254 1 -16 8 -77 58 -136 110 -129 115 -192 148 -289 153
-67 4 -88 -2 -424 -111 -237 -77 -368 -125 -395 -144 -52 -37 -85 -101 -92
-183 -5 -54 -3 -73 16 -112 27 -57 49 -74 217 -166 263 -143 413 -190 668
-208 52 -3 108 -14 133 -25 65 -28 161 -126 295 -304 67 -88 158 -197 202
-242 l81 -83 704 0 c440 0 729 -4 769 -11 83 -13 161 -41 230 -81 75 -44 445
-414 489 -489 93 -158 114 -359 62 -566 -48 -186 -132 -312 -373 -560 -204
-209 -191 -187 -253 -413 -36 -130 -407 -1166 -424 -1184 -32 -33 -568 -106
-782 -106 l-88 0 0 339 c0 383 -6 433 -70 610 -92 256 -188 417 -368 621 -107
121 -145 179 -179 277 l-27 78 -6 450 c-7 496 -8 505 -74 640 -39 80 -119 167
-200 219 -81 52 -456 256 -808 439 -344 179 -446 239 -618 360 -158 111 -256
194 -388 331 -151 156 -230 264 -623 855 l-337 505 65 130 c204 414 447 764
747 1074 94 98 316 290 441 382 224 165 448 300 699 420 l140 68 274 -137 274
-136 91 0 c108 0 148 17 226 93 74 72 91 129 91 302 0 123 2 139 18 144 38 11
361 52 433 55 34 1 50 -13 360 -324z m3623 -2265 c98 -248 184 -559 225 -815
43 -272 54 -433 47 -705 -5 -224 -23 -462 -37 -473 -9 -8 -647 175 -695 199
-28 14 -72 46 -98 72 -56 54 -434 615 -478 708 -57 122 -57 266 0 388 16 35
116 200 222 367 256 403 257 404 535 535 l130 61 48 -101 c27 -56 72 -162 101
-236z"/>
</g>
</svg>
